<svg style="opacity:0.4" xmlns="http://www.w3.org/2000/svg" width="3109" height="766" fill="none" xmlns:v="https://vecta.io/nano"><g stroke="#142563" stroke-width="1.791" stroke-miterlimit="10"><path d="M1008.44 243.053l17.42-17.459m-137.311 17.459l17.422-17.459"/><use href="#B"/><path d="M949.451 225.695l17.512 17.513M658.925-4.536H420.184v179.061h238.741V-4.536zM420.184 413.271H241.123v59.68h179.061v-59.68z"/><use href="#C"/><use href="#C" y="-59.678"/><use href="#D"/><path d="M837.769 472.969H718.604v59.681h119.165v-59.681zm0-59.698H718.604v59.68h119.165v-59.68z"/><use href="#D" y="179.062"/><path d="M420.075 741.54H-117v29.849h537.075V741.54zm0-268.571H-117v29.85h537.075v-29.85z"/><use href="#E"/><use href="#E" y="29.832"/><path d="M151.537 368.506H-27.416v29.849h178.953v-29.849zm208.838 283.503H-57.32c-16.485 0-29.849 13.36-29.849 29.84s13.364 29.841 29.849 29.841h417.696c16.485 0 29.849-13.36 29.849-29.841s-13.364-29.84-29.849-29.84z"/><use href="#F"/><use href="#F" y="-119.376"/><path d="M837.769 652.03H718.604v59.681h119.165V652.03z"/><use href="#D" y="59.685"/><use href="#D" y="-179.06"/><use href="#D" y="-238.738"/><path d="M62.042 234.21H2.361v59.681h59.681V234.21z"/><use href="#G"/><use href="#G" y="-59.678"/><path d="M62.042 55.149H2.361v59.681h59.681V55.149z"/><path d="M62.042-4.536H2.361v59.681h59.681V-4.536z"/><use href="#H"/><use href="#H" y="-59.684"/><use href="#H" y="-119.362"/><path d="M2.361 55.149H-57.32v59.681H2.361V55.149z"/><path d="M2.361-4.536H-57.32v59.681H2.361V-4.536z"/><use href="#G" y="358.121"/><use href="#I"/><use href="#J"/><use href="#J" x="119.385"/><use href="#K"/><use href="#K" y="-59.699"/><use href="#K" y="-119.377"/><use href="#K" y="-179.062"/><use href="#K" y="-238.76"/><use href="#K" x="-59.67"/><use href="#K" x="-59.67" y="-59.699"/><use href="#K" x="-59.67" y="-119.377"/><use href="#K" x="-59.67" y="-179.062"/><use href="#K" x="-59.67" y="-238.76"/><use href="#K" x="-119.37"/><use href="#K" x="-119.37" y="-59.699"/><use href="#K" x="-119.37" y="-119.377"/><use href="#K" x="-119.37" y="-179.061"/><use href="#K" x="-119.37" y="-238.76"/><use href="#K" x="-179.06"/><use href="#K" x="-179.06" y="-59.699"/><use href="#K" x="-179.06" y="-119.377"/><use href="#K" x="-179.06" y="-179.062"/><use href="#K" x="-179.06" y="-238.76"/><path d="M658.924 114.847H509.713v29.832h-56.727m0-119.362h56.727v29.832h149.211m-.002 29.846H419.518"/><path d="M436.586 161.081c9.058 0 16.402-7.344 16.402-16.402s-7.344-16.402-16.402-16.402-16.402 7.343-16.402 16.402 7.343 16.402 16.402 16.402zm0-119.362c9.058 0 16.402-7.343 16.402-16.402s-7.344-16.402-16.402-16.402-16.402 7.343-16.402 16.402 7.343 16.402 16.402 16.402zm384.798 59.677c9.059 0 16.402-7.343 16.402-16.402s-7.343-16.402-16.402-16.402-16.402 7.343-16.402 16.402 7.344 16.402 16.402 16.402z"/><path d="M837.981-4.536H658.92v179.061h179.061V-4.536z"/><path d="M837.986 174.525H420.184v119.38h417.802v-119.38z"/><path d="M420.184 293.905h298.422l119.38-119.38H539.563l-119.379 119.38zm-179.062.003H-117v179.061h358.122V293.908z"/><path d="M1076.72 174.525H837.982v119.38h238.738v-119.38z"/><path d="M1017.04 293.908H837.982V771.41H1017.04V293.908Z"/><use href="#L"/><use href="#M"/><use href="#M" x="29.83"/><use href="#M" x="59.676"/><use href="#L" x="119.385"/><use href="#M" x="119.375"/><path d="M658.92-4.536h56.547c49.421 0 89.531 40.11 89.531 89.53s-40.11 89.531-89.531 89.531H658.92V-4.536zm776.41 775.893h119.04V592.296h-119.04v179.061z"/><path d="M1435.35 651.974h59.2v-29.832h59.82m0 119.362h-59.82v-29.831h-59.2"/><path d="M1435.35 681.827h119.02m-281.48 16.402a16.41 16.41 0 0 0 16.4-16.402 16.41 16.41 0 0 0-16.4-16.402c-9.06 0-16.41 7.343-16.41 16.402s7.35 16.402 16.41 16.402z"/><path d="M1256.27 771.357h179.06V592.296h-179.06v179.061z"/><path d="M1435.35 771.357h-56.55c-49.42 0-89.53-40.11-89.53-89.53s40.11-89.531 89.53-89.531h56.55v179.061zM-57.32 562.479H2.361"/><use href="#I" x="119.379"/><path d="M62.063 562.479h59.68m98.265-21.089l21.111 21.093-21.111 21.111m-38.586-21.115h59.699"/><use href="#I" x="358.123"/><path d="M300.799 562.479h59.681m1193.64-387.954h-477.39v119.38h477.39v-119.38z"/><use href="#K" x="-59.67" y="-507.295"/><path d="M1115.31 213.114l21.12 21.094-21.12 21.111"/><use href="#K" x="59.69" y="-507.295"/><path d="M1434.85 204.378h-59.69v59.681h59.69v-59.681zm118.73-29.853v119.201c-32.59 0-59.03-26.447-59.03-59.036v-1.128c0-32.59 26.44-59.037 59.03-59.037zm-476.85 59.684h59.7"/><use href="#N"/><path d="M1196.1 234.209h59.68m98.29-21.095l21.1 21.093-21.1 21.112m-38.58-21.109h59.68m98.26-21.096l21.11 21.094-21.11 21.111m-38.58-21.109h59.7M62.061 293.908L-117 383.438l179.061 89.531 179.061-89.531-179.061-89.53zM1554.42 128.85h-179.06v45.679h179.06V128.85z"/><path d="M1554.42 83.169h-179.06v45.678h179.06V83.169zm0-45.695h-179.06v45.678h179.06V37.474z"/><path d="M1554.42-4.536h-179.06v42.008h179.06V-4.536zm-268.64 74.618h-178.96v29.85h178.96v-29.85z"/><path d="M1375.36-4.536h-358.12v179.061h358.12V-4.536z"/><path d="M1196.3-4.536l-179.06 89.53 179.06 89.531 179.06-89.53-179.06-89.53zM927.692 652.03l-89.907 59.681 89.907 59.681 89.908-59.681-89.908-59.681zM-57.32 689.325l29.849-14.934 29.832 14.934 29.849-14.934 29.85 14.934 29.831-14.934 29.85 14.934 29.795-14.934 29.886 14.934 29.849-14.934 29.849 14.934 29.832-14.934 29.849 14.934 29.85-14.934 29.831 14.934"/><use href="#O"/><use href="#P"/><path d="M1494.64 323.775h-417.7c-16.48 0-29.85 13.36-29.85 29.841s13.37 29.84 29.85 29.84h417.7c16.48 0 29.85-13.36 29.85-29.84s-13.37-29.841-29.85-29.841z"/><use href="#Q"/><path d="M1076.94 361.091l29.83-14.933 29.85 14.933 29.85-14.933 29.83 14.933 29.85-14.933 29.85 14.933 29.8-14.933 29.88 14.933 29.85-14.933 29.83 14.933 29.85-14.933 29.85 14.933 29.83-14.933 29.85 14.933m-626.907-67.146c16.505 0 29.885-13.38 29.885-29.885s-13.38-29.886-29.885-29.886-29.886 13.38-29.886 29.886 13.38 29.885 29.886 29.885z"/><path d="M927.512 234.212c16.505 0 29.885-13.38 29.885-29.886s-13.38-29.885-29.885-29.885-29.885 13.38-29.885 29.885 13.38 29.886 29.885 29.886zm59.701 59.698c16.507 0 29.887-13.38 29.887-29.885s-13.38-29.885-29.887-29.885-29.885 13.38-29.885 29.885 13.38 29.885 29.885 29.885z"/><use href="#R"/><path d="M1554.08 472.983h-298.1v119.38h298.1v-119.38z"/><path d="M1384.15 541.426l-17.51-17.494m-42.26-.001l-17.44 17.459m136.82-17.48l-17.4 17.459m77.1 0L1486 523.911"/><use href="#S"/><path d="M1345.51 532.684c16.51 0 29.89-13.38 29.89-29.886s-13.38-29.885-29.89-29.885c-16.5 0-29.89 13.38-29.89 29.885s13.39 29.886 29.89 29.886z"/><use href="#R" x="358.12" y="358.157"/><use href="#T"/><use href="#R" x="417.81" y="298.458"/><path d="M419.518 234.209h60.343m298.336 0h60.344m-305.75 7.468l29.849-14.916 29.85 14.916 29.831-14.916 29.85 14.916 29.849-14.916 29.832 14.916M1017.04 532.65l-57.726 59.681H837.785V532.65l57.729-59.681h121.726l-.2 59.681z"/><path d="M948.623 451.859l-21.112 21.112-21.093-21.112m21.094-38.589v59.699m21.111 157.916l-21.112 21.094-21.093-21.094"/><path d="M927.512 592.297v59.681"/><use href="#U"/><path d="M972.28 517.734h-89.19v29.85h89.19v-29.85z"/><use href="#U" y="358.107"/><path d="M957.595 293.943h-60.147c-32.951 0-59.663 26.712-59.663 59.663v.018c0 32.951 26.712 59.663 59.663 59.663h60.147c32.951 0 59.665-26.712 59.665-59.663v-.018c0-32.951-26.714-59.663-59.665-59.663zM390.294 532.598h29.778v59.591h-29.778c-16.438 0-29.796-13.358-29.796-29.796s13.358-29.795 29.796-29.795zm328.33-179.012h-298.44v417.803h298.44V353.586z"/><path d="M548.551 720.487l-17.512-17.494m-42.257 0l-17.44 17.458m136.817-17.479l-17.423 17.458m77.121 0l-17.459-17.458"/><use href="#V"/><use href="#W"/><use href="#X"/><use href="#Y"/><path d="M629.288 711.73c16.505 0 29.885-13.38 29.885-29.885s-13.38-29.886-29.885-29.886-29.886 13.381-29.886 29.886 13.38 29.885 29.886 29.885zm-80.737-111.697l-17.512-17.494m-42.257-.021l-17.44 17.476m136.815-17.476l-17.423 17.458m77.123 0l-17.459-17.458"/><use href="#V" y="-120.453"/><use href="#W" y="-120.468"/><path d="M569.592 650.976c16.505 0 29.886-13.38 29.886-29.886s-13.381-29.885-29.886-29.885-29.885 13.38-29.885 29.885 13.38 29.886 29.885 29.886zm118.998 0c16.506 0 29.886-13.38 29.886-29.885s-13.38-29.886-29.886-29.886-29.885 13.381-29.885 29.886 13.38 29.885 29.885 29.885z"/><use href="#V" x="179.08" y="-180.209"/><path d="M548.551 481.703l-17.512-17.512m-42.257 0l-17.44 17.458m136.817-17.458l-17.423 17.458m77.121.004l-17.459-17.476"/><use href="#B"/><path d="M650.416 422.077l17.441-17.459m-136.818 17.459l17.423-17.459m-77.12 0l17.458 17.477M590.646 523.91l17.513 17.513m42.257.002l17.441-17.458m-136.818 17.471l17.423-17.458m-77.12 0l17.458 17.458"/><use href="#B" y="238.683"/><path d="M650.416 660.766l17.441-17.458m-136.818 17.479l17.423-17.458m-77.12 0l17.458 17.458m-38.592-128.103c16.505 0 29.885-13.38 29.885-29.886s-13.38-29.885-29.885-29.885-29.886 13.38-29.886 29.885 13.38 29.886 29.886 29.886z"/><use href="#W" y="-238.794"/><use href="#X" y="-238.781"/><use href="#Y" y="-238.781"/><use href="#V" y="-358.122"/><use href="#X" y="-358.122"/><use href="#Y" y="-358.122"/><use href="#V" x="179.08" y="-298.535"/><path d="M420.179-4.536H121.738v298.441h298.441V-4.536z"/><path d="M241.118 234.209h-89.53c-16.474 0-29.85 13.358-29.85 29.85 0 16.474 13.358 29.849 29.85 29.849h119.38c16.473 0 29.849-13.358 29.849-29.849 0-16.474-13.358-29.85-29.849-29.85h-29.85z"/><path d="M320.659 174.525H151.68c-16.474 0-29.85 13.358-29.85 29.849 0 16.474 13.358 29.85 29.85 29.85h69.565 99.414 69.565c16.474 0 29.85-13.358 29.85-29.85 0-16.473-13.358-29.849-29.85-29.849h-69.565zm-.183-119.376H152.23c-16.473 0-29.849 13.358-29.849 29.849 0 16.474 13.358 29.85 29.849 29.85h69.207 99.039 69.207c16.474 0 29.849-13.358 29.849-29.85 0-16.474-13.358-29.849-29.849-29.849h-69.207z"/><path d="M360.484 234.209h-29.849c-16.474 0-29.85 13.358-29.85 29.85 0 16.474 13.358 29.849 29.85 29.849h59.681c16.473 0 29.849-13.358 29.849-29.849 0-16.474-13.358-29.85-29.849-29.85h-29.85.018zM241.118-4.536h-89.53c-16.474 0-29.85 13.358-29.85 29.849 0 16.474 13.358 29.849 29.85 29.849h119.38c16.473 0 29.849-13.358 29.849-29.849 0-16.474-13.358-29.849-29.849-29.849h-29.85z"/><path d="M360.484-4.536h-29.849c-16.474 0-29.85 13.358-29.85 29.849 0 16.474 13.358 29.849 29.85 29.849h59.681c16.473 0 29.849-13.358 29.849-29.849 0-16.474-13.358-29.849-29.849-29.849h-29.85.018zM300.8 174.525h89.531c16.473 0 29.849-13.358 29.849-29.849 0-16.474-13.358-29.85-29.849-29.85h-119.38c-16.474 0-29.849 13.358-29.849 29.85 0 16.473 13.357 29.849 29.849 29.849H300.8z"/><path d="M181.419 174.525h29.85c16.473 0 29.849-13.358 29.849-29.849 0-16.474-13.358-29.85-29.849-29.85h-59.681c-16.474 0-29.85 13.358-29.85 29.85 0 16.473 13.358 29.849 29.85 29.849h29.849-.018zM91.912-4.536H62.063v298.441h29.849V-4.536z"/><path d="M121.742-4.536H91.893v298.441h29.849V-4.536zM2679.86 242.589l17.42-17.459m-137.31 17.459l17.43-17.459"/><use href="#Z"/><use href="#Z" x="358.81" y="-178.874"/><path d="M2330.35-5h-238.74v179.061h238.74V-5z"/><use href="#a"/><use href="#a" y="-59.684"/><use href="#a" y="-119.362"/><use href="#b"/><use href="#b" y="-59.677"/><use href="#b" y="-119.376"/><use href="#b" y="179.062"/><use href="#P" x="537.18" y="297.924"/><use href="#O" x="537.18" y="59.2"/><use href="#c"/><use href="#c" y="29.832"/><path d="M1822.96 368.042h-178.95v29.849h178.95v-29.849zm208.84 283.503h-417.7c-16.48 0-29.85 13.36-29.85 29.84s13.37 29.841 29.85 29.841h417.7c16.48 0 29.85-13.36 29.85-29.841s-13.37-29.84-29.85-29.84z"/><use href="#Q" x="537.18" y="327.77"/><use href="#Q" x="537.18" y="208.394"/><use href="#b" y="119.384"/><use href="#b" y="59.685"/><use href="#b" y="-179.06"/><use href="#b" y="-238.738"/><use href="#K" x="477.69" y="-477.927"/><use href="#K" x="477.69" y="-537.612"/><use href="#K" x="477.69" y="-597.29"/><use href="#d"/><use href="#e"/><use href="#K" x="418" y="-477.928"/><use href="#K" x="418" y="-537.612"/><use href="#K" x="418" y="-597.29"/><use href="#d" x="-59.69"/><use href="#e" x="-59.69"/><use href="#K" x="358.32" y="-477.927"/><use href="#K" x="358.32" y="-537.612"/><use href="#K" x="477.69" y="-179.491"/><use href="#N" x="418" y="327.812"/><path d="M1614.1 502.337h-59.68v119.38h59.68v-119.38z"/><use href="#K" x="597.06" y="-179.491"/><use href="#K" x="716.45" y="-179.491"/><use href="#K" x="358.32" y="-597.29"/><use href="#d" x="-119.37"/><use href="#e" x="-119.37"/><use href="#K" x="1671.43" y="-0.464"/><use href="#f"/><use href="#K" x="1671.43" y="-119.841"/><use href="#K" x="1671.43" y="-179.526"/><use href="#K" x="1671.43" y="-239.224"/><use href="#K" x="1611.75" y="-0.464"/><use href="#f" x="-59.68"/><use href="#K" x="1611.75" y="-119.841"/><use href="#K" x="1611.75" y="-179.526"/><use href="#K" x="1611.75" y="-239.224"/><use href="#K" x="1552.05" y="-0.464"/><path d="M2807.83 651.51h-59.68v59.681h59.68V651.51z"/><use href="#K" x="1552.05" y="-119.841"/><use href="#K" x="1552.05" y="-179.525"/><use href="#K" x="1552.05" y="-239.224"/><use href="#K" x="1492.37" y="-0.464"/><use href="#f" x="-179.06"/><use href="#K" x="1492.37" y="-119.841"/><use href="#K" x="1492.37" y="-179.526"/><use href="#K" x="1492.37" y="-239.224"/><path d="M2330.35 114.383h-149.21v29.832h-56.73m0-119.362h56.73v29.832h149.21m0 29.845h-239.41"/><use href="#g"/><use href="#h"/><use href="#h" x="384.8" y="59.677"/><path d="M2509.4-5h-179.06v179.061h179.06V-5z"/><path d="M2509.41 174.061h-417.8v119.38h417.8v-119.38z"/><path d="M2091.61 293.441h298.42l119.38-119.38h-298.42l-119.38 119.38zm-179.06.003h-358.13v179.061h358.13V293.444z"/><path d="M2748.15 174.061h-238.74v119.38h238.74v-119.38z"/><path d="M2688.47 293.444h-179.06v477.502h179.06V293.444z"/><use href="#i"/><use href="#i" x="29.85"/><use href="#i" x="59.68"/><path d="M2628.78-5h-29.84v179.061h29.84V-5z"/><use href="#i" x="119.38"/><use href="#i" x="149.22"/><path d="M2330.34-5h56.55c49.42 0 89.53 40.11 89.53 89.53s-40.11 89.531-89.53 89.531h-56.55V-5zm776.42 775.893h119.04V591.832h-119.04v179.061z"/><path d="M3106.77 651.51h59.2v-29.832h59.82m0 119.362h-59.82v-29.831h-59.2"/><path d="M3106.77 681.363h119.02"/><use href="#g" x="836.3" y="537.148"/><path d="M2927.69 770.893h179.06V591.832h-179.06v179.061z"/><path d="M3106.77 770.893h-56.55c-49.42 0-89.53-40.11-89.53-89.531s40.11-89.53 89.53-89.53h56.55v179.061zM1614.1 562.014h59.68"/><use href="#N" x="537.38" y="327.812"/><path d="M1733.49 562.014h59.68m98.26-21.088l21.11 21.093-21.11 21.111m-38.58-21.116h59.69m98.27-21.088l21.1 21.093-21.1 21.111m-38.59-21.116h59.68m1193.64-387.953h-477.39v119.38h477.39v-119.38z"/><use href="#K" x="1611.75" y="-507.759"/><path d="M2786.74 212.65l21.11 21.094-21.11 21.111"/><use href="#K" x="1731.11" y="-507.76"/><use href="#K" x="1850.49" y="-507.759"/><path d="M2748.15 233.745h59.7"/><use href="#N" x="1671.43" y="-0.464"/><path d="M2867.53 233.745h59.68"/><use href="#N" x="1790.81" y="-0.464"/><path d="M2986.91 233.746h59.68m59.68 0h59.7m-1432.49 59.698l-179.06 89.53 179.06 89.531 179.07-89.531-179.07-89.53zm1492.37-165.058h-179.06v45.679h179.06v-45.679z"/><path d="M3225.85 82.705h-179.06v45.678h179.06V82.705zm0-45.696h-179.06v45.678h179.06V37.009z"/><path d="M3225.85-5h-179.06v42.008h179.06V-5zM2957.2 69.618h-178.95v29.849h178.95V69.618z"/><path d="M3046.79-5h-358.13v179.061h358.13V-5z"/><path d="M2867.72-5l-179.06 89.53 179.06 89.531 179.07-89.531L2867.72-5zm-268.6 656.566l-89.91 59.681 89.91 59.681 89.9-59.681-89.9-59.681zm-985.02 37.295l29.85-14.934 29.83 14.934 29.85-14.934 29.85 14.934 29.83-14.934 29.85 14.934 29.8-14.934 29.89 14.934 29.84-14.934 29.85 14.934 29.84-14.934 29.85 14.934 29.84-14.934 29.84 14.934"/><use href="#O" x="1671.42" y="-0.464"/><use href="#P" x="1671.42" y="-0.464"/><path d="M3166.06 323.311h-417.69c-16.49 0-29.85 13.36-29.85 29.841s13.36 29.84 29.85 29.84h417.69c16.49 0 29.85-13.36 29.85-29.84s-13.36-29.841-29.85-29.841z"/><use href="#Q" x="1671.42" y="-0.464"/><path d="M2748.37 360.627l29.83-14.933 29.85 14.933 29.85-14.933 29.83 14.933 29.85-14.933 29.85 14.933 29.79-14.933 29.89 14.933 29.85-14.933 29.83 14.933 29.85-14.933 29.85 14.933 29.83-14.933 29.85 14.933"/><use href="#T" x="1015.06" y="-298.887"/><path d="M2598.94 233.748c16.5 0 29.88-13.381 29.88-29.886s-13.38-29.885-29.88-29.885c-16.51 0-29.89 13.38-29.89 29.885s13.38 29.886 29.89 29.886z"/><use href="#R" x="1611.55" y="59.235"/><path d="M2718.51 233.747c16.51 0 29.89-13.38 29.89-29.885s-13.38-29.885-29.89-29.885c-16.5 0-29.89 13.38-29.89 29.885s13.39 29.885 29.89 29.885zm507 238.772h-298.1v119.38h298.1v-119.38z"/><path d="M3055.58 540.962l-17.51-17.494m-42.26-.001l-17.44 17.459m136.82-17.48l-17.41 17.458"/><use href="#R" x="1910.17" y="357.728"/><use href="#S" x="1731.1" y="-60.184"/><path d="M3076.63 591.904c16.51 0 29.89-13.38 29.89-29.885s-13.38-29.886-29.89-29.886c-16.5 0-29.88 13.381-29.88 29.886s13.38 29.885 29.88 29.885z"/><use href="#R" x="2089.23" y="297.994"/><path d="M2090.94 233.745h60.34m298.34 0h60.34m-305.75 7.467l29.85-14.915 29.85 14.915 29.84-14.915 29.84 14.915 29.85-14.915 29.84 14.915m305.19 290.974l-57.73 59.681h-121.53v-59.681l57.73-59.681h121.72l-.19 59.681z"/><path d="M2620.05 451.395l-21.11 21.112-21.1-21.112m21.1-38.589v59.699m21.11 157.916l-21.11 21.094-21.1-21.094"/><path d="M2598.94 591.833v59.681"/><use href="#U" x="1671.42" y="-0.464"/><path d="M2643.7 517.27h-89.19v29.849h89.19V517.27z"/><use href="#U" x="1671.42" y="357.643"/><path d="M2629.02 293.479h-60.15c-32.95 0-59.66 26.712-59.66 59.663v.018c0 32.951 26.71 59.663 59.66 59.663h60.15c32.95 0 59.66-26.712 59.66-59.663v-.018c0-32.951-26.71-59.663-59.66-59.663zm-567.3 238.655h29.78v59.591h-29.78c-16.44 0-29.8-13.358-29.8-29.796s13.36-29.795 29.8-29.795zm328.33-179.012h-298.44v417.803h298.44V353.122z"/><path d="M2219.98 720.023l-17.52-17.494m-42.25 0l-17.44 17.458m136.81-17.48l-17.42 17.459m77.12 0l-17.46-17.458"/><path d="M2121.63 771c16.51 0 29.89-13.38 29.89-29.885s-13.38-29.885-29.89-29.885c-16.5 0-29.88 13.38-29.88 29.885S2105.13 771 2121.63 771z"/><use href="#S" x="895.5" y="118.877"/><use href="#R" x="1193.93" y="536.754"/><use href="#S" x="1074.18" y="178.562"/><use href="#j"/><path d="M2219.98 599.569l-17.52-17.494m-42.25-.021l-17.44 17.476m136.81-17.476l-17.42 17.458m77.12 0l-17.46-17.459"/><use href="#S" x="835.8" y="58.144"/><use href="#S" x="895.5" y="-1.591"/><use href="#R" x="1193.93" y="416.3"/><use href="#j" x="59.3" y="-60.754"/><use href="#S" x="1014.88" y="-1.612"/><path d="M2219.98 481.239l-17.52-17.512m-42.25 0l-17.44 17.458m136.81-17.458l-17.42 17.458m77.12.004l-17.46-17.476"/><use href="#Z"/><use href="#k"/><use href="#l"/><path d="M2142.77 404.154l17.45 17.476"/><use href="#Z" y="119.341"/><use href="#k" y="119.349"/><use href="#l" y="119.362"/><path d="M2142.77 523.516l17.45 17.458"/><use href="#Z" y="238.683"/><use href="#k" y="238.69"/><use href="#l" y="238.711"/><path d="M2142.77 642.865l17.45 17.458"/><use href="#S" x="835.8" y="-60.184"/><use href="#S" x="895.5" y="-119.917"/><use href="#R" x="1193.93" y="297.973"/><use href="#S" x="1074.18" y="-60.219"/><use href="#S" x="835.8" y="-179.525"/><use href="#R" x="1193.93" y="178.632"/><use href="#S" x="1074.18" y="-179.56"/><use href="#S" x="1014.88" y="-119.938"/><path d="M2091.6-5h-298.44v298.441h298.44V-5z"/><path d="M1912.54 233.745h-89.53c-16.47 0-29.85 13.358-29.85 29.85 0 16.473 13.36 29.849 29.85 29.849h119.38c16.48 0 29.85-13.358 29.85-29.849 0-16.474-13.36-29.85-29.85-29.85h-29.85z"/><path d="M1992.08 174.061H1823.1c-16.47 0-29.85 13.358-29.85 29.849 0 16.474 13.36 29.85 29.85 29.85h69.57 99.41 69.57c16.47 0 29.85-13.358 29.85-29.85 0-16.473-13.36-29.849-29.85-29.849h-69.57zm-.18-119.376h-168.25c-16.47 0-29.85 13.358-29.85 29.849 0 16.474 13.36 29.849 29.85 29.849h69.21 99.04 69.21c16.47 0 29.85-13.357 29.85-29.849 0-16.474-13.36-29.849-29.85-29.849h-69.21z"/><path d="M2031.91 233.745h-29.85c-16.48 0-29.85 13.358-29.85 29.85 0 16.473 13.36 29.849 29.85 29.849h59.68c16.47 0 29.85-13.358 29.85-29.849 0-16.474-13.36-29.85-29.85-29.85h-29.85.02zM1912.54-5h-89.53c-16.47 0-29.85 13.358-29.85 29.849 0 16.474 13.36 29.85 29.85 29.85h119.38c16.48 0 29.85-13.358 29.85-29.85C1972.24 8.376 1958.88-5 1942.39-5h-29.85z"/><path d="M2031.91-5h-29.85c-16.48 0-29.85 13.358-29.85 29.849 0 16.474 13.36 29.85 29.85 29.85h59.68c16.47 0 29.85-13.358 29.85-29.85C2091.59 8.376 2078.23-5 2061.74-5h-29.85.02zm-59.69 179.061h89.53c16.48 0 29.85-13.358 29.85-29.85 0-16.473-13.35-29.849-29.85-29.849h-119.38c-16.47 0-29.84 13.358-29.84 29.849 0 16.474 13.35 29.85 29.84 29.85h29.85z"/><path d="M1852.84 174.061h29.85c16.48 0 29.85-13.358 29.85-29.85 0-16.473-13.36-29.849-29.85-29.849h-59.68c-16.47 0-29.85 13.358-29.85 29.849 0 16.474 13.36 29.85 29.85 29.85h29.85-.02zM1763.34-5h-29.85v298.441h29.85V-5z"/><path d="M1793.17-5h-29.85v298.441h29.85V-5z"/></g><defs ><path id="B" d="M590.646 404.569l17.513 17.512"/><path id="C" d="M420.184 353.586H241.123v59.681h179.061v-59.681z"/><path id="D" d="M837.769 532.646H718.604v59.681h119.165v-59.681z"/><path id="E" d="M718.622 293.908H420.199v29.85h298.423v-29.85z"/><path id="F" d="M420.075 622.177H-117v119.38h537.075v-119.38z"/><path id="G" d="M62.042 174.525H2.361v59.681h59.681v-59.681z"/><path id="H" d="M2.361 234.209H-57.32v59.681H2.361v-59.681z"/><path id="I" d="M-18.734 541.39l21.093 21.093-21.093 21.111"/><path id="J" d="M181.419 532.646h-59.681v59.681h59.681v-59.681z"/><path id="K" d="M1255.78 711.673h-59.68v59.681h59.68v-59.681z"/><path id="L" d="M867.832-4.536h-29.85v179.061h29.85V-4.536z"/><path id="M" d="M897.685-4.536h-29.849v179.061h29.849V-4.536z"/><path id="N" d="M1234.69 213.114l21.09 21.093-21.09 21.111"/><path id="O" d="M1554.32 413.305h-537.08v29.849h537.08v-29.849z"/><path id="P" d="M1554.32 443.151h-537.08v29.85h537.08v-29.85z"/><path id="Q" d="M1554.32 293.943h-537.08v119.38h537.08v-119.38z"/><path id="R" d="M1047.09 234.211c16.5 0 29.88-13.38 29.88-29.885s-13.38-29.885-29.88-29.885c-16.51 0-29.89 13.38-29.89 29.885s13.38 29.885 29.89 29.885z"/><path id="S" d="M1285.83 592.403c16.51 0 29.89-13.38 29.89-29.885s-13.38-29.885-29.89-29.885c-16.5 0-29.88 13.38-29.88 29.885s13.38 29.885 29.88 29.885z"/><path id="T" d="M1524.2 592.368c16.5 0 29.88-13.38 29.88-29.886s-13.38-29.885-29.88-29.885c-16.51 0-29.89 13.38-29.89 29.885s13.38 29.886 29.89 29.886z"/><path id="U" d="M972.28 338.688h-89.19v29.849h89.19v-29.849z"/><path id="V" d="M450.208 771.464c16.505 0 29.885-13.38 29.885-29.885s-13.38-29.885-29.885-29.885-29.886 13.38-29.886 29.885 13.38 29.885 29.886 29.885z"/><path id="W" d="M509.907 711.744c16.505 0 29.885-13.38 29.885-29.885s-13.38-29.885-29.885-29.885-29.886 13.38-29.886 29.885 13.381 29.885 29.886 29.885z"/><path id="X" d="M569.592 771.429c16.505 0 29.886-13.38 29.886-29.885s-13.381-29.885-29.886-29.885-29.885 13.38-29.885 29.885 13.38 29.885 29.885 29.885z"/><path id="Y" d="M688.59 771.429c16.506 0 29.886-13.38 29.886-29.885s-13.38-29.885-29.886-29.885-29.885 13.38-29.885 29.885 13.38 29.885 29.885 29.885z"/><path id="Z" d="M2262.07 404.105l17.51 17.512"/><path id="a" d="M2091.61 412.806h-179.06v59.681h179.06v-59.681z"/><path id="b" d="M2509.19 532.182h-119.16v59.681h119.16v-59.681z"/><path id="c" d="M2390.05 293.444h-298.43v29.85h298.43v-29.85z"/><path id="d" d="M1733.47 54.685h-59.68v59.681h59.68V54.685z"/><path id="e" d="M1733.47-5h-59.68v59.681h59.68V-5z"/><path id="f" d="M2927.21 651.51h-59.68v59.68h59.68v-59.68z"/><path id="g" d="M2108.01 160.617c9.06 0 16.4-7.344 16.4-16.402s-7.34-16.402-16.4-16.402-16.4 7.343-16.4 16.402 7.34 16.402 16.4 16.402z"/><path id="h" d="M2108.01 41.255c9.06 0 16.4-7.343 16.4-16.402s-7.34-16.402-16.4-16.402-16.4 7.343-16.4 16.402 7.34 16.402 16.4 16.402z"/><path id="i" d="M2539.26-5h-29.85v179.061h29.85V-5z"/><path id="j" d="M2300.71 711.266c16.51 0 29.89-13.38 29.89-29.885s-13.38-29.886-29.89-29.886c-16.5 0-29.88 13.38-29.88 29.886s13.38 29.885 29.88 29.885z"/><path id="k" d="M2321.84 421.612l17.44-17.458"/><path id="l" d="M2202.46 421.612l17.43-17.458"/></defs></svg>
