<svg width="90" height="90" viewBox="0 0 90 90" fill="none" xmlns="http://www.w3.org/2000/svg">
<rect x="0.5625" y="0.5625" width="88.875" height="88.875" rx="44.4375" stroke="#EBEDEE" stroke-width="1.125"/>
<circle cx="45" cy="45" r="45" fill="#BDE8F7"/>
<path d="M45 38.6998C50.219 38.6998 54.45 34.4689 54.45 29.2498C54.45 24.0307 50.219 19.7998 45 19.7998C39.7809 19.7998 35.55 24.0307 35.55 29.2498C35.55 34.4689 39.7809 38.6998 45 38.6998Z" fill="#1B77B6"/>
<path d="M24.4152 59.1544C23.8014 60.7547 24.3496 62.5484 25.7037 63.5993C31.0346 67.7366 37.7298 70.1998 45.0003 70.1998C52.2782 70.1998 58.9797 67.7316 64.3133 63.5866C65.6666 62.5348 66.2137 60.7408 65.5988 59.1409C62.4197 50.87 54.4002 44.9998 45.0096 44.9998C35.6139 44.9998 27.5908 50.8764 24.4152 59.1544Z" fill="#1B77B6"/>
</svg>
