<svg width="193" height="18" viewBox="0 0 193 18" fill="none" xmlns="http://www.w3.org/2000/svg">
<path d="M2.88 17.808L5.928 2.544H0L0.312 1.008H13.896L13.584 2.544H7.68L4.632 17.808H2.88Z" fill="#1B77B6"/>
<path d="M21.7013 5.088C22.8373 5.088 23.7653 5.312 24.4853 5.76C25.2213 6.192 25.7253 6.824 25.9972 7.656C26.2852 8.488 26.3092 9.48 26.0693 10.632L24.6293 17.808H22.9253L24.3653 10.608C24.6213 9.36 24.4853 8.384 23.9573 7.68C23.4453 6.976 22.5333 6.624 21.2213 6.624C19.8773 6.624 18.7573 6.992 17.8612 7.728C16.9812 8.464 16.3893 9.568 16.0853 11.04L14.7413 17.808H13.0372L16.5893 0H18.2932L16.5173 8.832L16.0853 8.208C16.6933 7.12 17.4773 6.328 18.4373 5.832C19.4132 5.336 20.5012 5.088 21.7013 5.088Z" fill="#1B77B6"/>
<path d="M35.016 17.928C33.816 17.928 32.768 17.712 31.872 17.28C30.992 16.832 30.312 16.208 29.832 15.408C29.368 14.608 29.136 13.656 29.136 12.552C29.136 11.112 29.44 9.832 30.048 8.712C30.656 7.592 31.488 6.712 32.544 6.072C33.6 5.416 34.792 5.088 36.12 5.088C37.24 5.088 38.208 5.304 39.024 5.736C39.84 6.152 40.472 6.76 40.92 7.56C41.384 8.36 41.616 9.32 41.616 10.44C41.616 10.696 41.6 10.96 41.568 11.232C41.536 11.488 41.496 11.736 41.448 11.976H30.384L30.6 10.704H40.656L39.96 11.184C40.12 10.176 40.048 9.328 39.744 8.64C39.44 7.952 38.968 7.432 38.328 7.08C37.704 6.712 36.952 6.528 36.072 6.528C35.048 6.528 34.136 6.784 33.336 7.296C32.536 7.792 31.912 8.488 31.464 9.384C31.016 10.264 30.792 11.296 30.792 12.48C30.792 13.744 31.152 14.72 31.872 15.408C32.608 16.08 33.704 16.416 35.16 16.416C36.008 16.416 36.792 16.28 37.512 16.008C38.232 15.72 38.824 15.328 39.288 14.832L40.056 16.056C39.464 16.648 38.72 17.112 37.824 17.448C36.944 17.768 36.008 17.928 35.016 17.928Z" fill="#1B77B6"/>
<path d="M56.1244 1.008H60.0124V17.808H56.1244V1.008ZM48.4924 17.808H44.6044V1.008H48.4924V17.808ZM56.4124 10.92H48.2044V7.632H56.4124V10.92Z" fill="#1B77B6"/>
<path d="M70.1312 18C68.6592 18 67.3632 17.712 66.2432 17.136C65.1392 16.56 64.2832 15.776 63.6752 14.784C63.0672 13.776 62.7632 12.632 62.7632 11.352C62.7632 10.056 63.0592 8.912 63.6512 7.92C64.2592 6.912 65.0832 6.128 66.1232 5.568C67.1632 4.992 68.3392 4.704 69.6512 4.704C70.9152 4.704 72.0512 4.976 73.0592 5.52C74.0832 6.048 74.8912 6.816 75.4832 7.824C76.0752 8.816 76.3712 10.008 76.3712 11.4C76.3712 11.544 76.3632 11.712 76.3472 11.904C76.3312 12.08 76.3152 12.248 76.2992 12.408H65.8112V10.224H74.3312L72.8912 10.872C72.8912 10.2 72.7552 9.616 72.4832 9.12C72.2112 8.624 71.8352 8.24 71.3552 7.968C70.8752 7.68 70.3152 7.536 69.6752 7.536C69.0352 7.536 68.4672 7.68 67.9712 7.968C67.4912 8.24 67.1152 8.632 66.8432 9.144C66.5712 9.64 66.4352 10.232 66.4352 10.92V11.496C66.4352 12.2 66.5872 12.824 66.8912 13.368C67.2112 13.896 67.6512 14.304 68.2112 14.592C68.7872 14.864 69.4592 15 70.2272 15C70.9152 15 71.5152 14.896 72.0272 14.688C72.5552 14.48 73.0352 14.168 73.4672 13.752L75.4592 15.912C74.8672 16.584 74.1232 17.104 73.2272 17.472C72.3312 17.824 71.2992 18 70.1312 18Z" fill="#1B77B6"/>
<path d="M86.4323 17.808V15.288L86.1923 14.736V10.224C86.1923 9.424 85.9442 8.8 85.4482 8.352C84.9682 7.904 84.2242 7.68 83.2162 7.68C82.5282 7.68 81.8482 7.792 81.1762 8.016C80.5202 8.224 79.9602 8.512 79.4962 8.88L78.1523 6.264C78.8563 5.768 79.7043 5.384 80.6963 5.112C81.6883 4.84 82.6963 4.704 83.7203 4.704C85.6883 4.704 87.2163 5.168 88.3043 6.096C89.3923 7.024 89.9362 8.472 89.9362 10.44V17.808H86.4323ZM82.4962 18C81.4882 18 80.6243 17.832 79.9043 17.496C79.1843 17.144 78.6323 16.672 78.2483 16.08C77.8643 15.488 77.6722 14.824 77.6722 14.088C77.6722 13.32 77.8563 12.648 78.2243 12.072C78.6083 11.496 79.2083 11.048 80.0243 10.728C80.8403 10.392 81.9042 10.224 83.2162 10.224H86.6482V12.408H83.6243C82.7443 12.408 82.1362 12.552 81.8002 12.84C81.4802 13.128 81.3203 13.488 81.3203 13.92C81.3203 14.4 81.5043 14.784 81.8723 15.072C82.2563 15.344 82.7763 15.48 83.4323 15.48C84.0563 15.48 84.6163 15.336 85.1123 15.048C85.6083 14.744 85.9683 14.304 86.1923 13.728L86.7682 15.456C86.4962 16.288 86.0003 16.92 85.2803 17.352C84.5603 17.784 83.6322 18 82.4962 18Z" fill="#1B77B6"/>
<path d="M93.3248 17.808V0H97.0687V17.808H93.3248Z" fill="#1B77B6"/>
<path d="M106.761 18C105.241 18 104.057 17.616 103.209 16.848C102.361 16.064 101.937 14.904 101.937 13.368V2.04H105.681V13.32C105.681 13.864 105.825 14.288 106.113 14.592C106.401 14.88 106.793 15.024 107.289 15.024C107.881 15.024 108.385 14.864 108.801 14.544L109.809 17.184C109.425 17.456 108.961 17.664 108.417 17.808C107.889 17.936 107.337 18 106.761 18ZM99.945 8.064V5.184H108.897V8.064H99.945Z" fill="#1B77B6"/>
<path d="M119.759 4.704C120.783 4.704 121.695 4.912 122.495 5.328C123.311 5.728 123.951 6.352 124.415 7.2C124.879 8.032 125.111 9.104 125.111 10.416V17.808H121.367V10.992C121.367 9.952 121.135 9.184 120.671 8.688C120.223 8.192 119.583 7.944 118.751 7.944C118.159 7.944 117.623 8.072 117.143 8.328C116.679 8.568 116.311 8.944 116.039 9.456C115.783 9.968 115.655 10.624 115.655 11.424V17.808H111.911V0H115.655V8.472L114.815 7.392C115.279 6.528 115.943 5.864 116.807 5.4C117.671 4.936 118.655 4.704 119.759 4.704Z" fill="#1B77B6"/>
<path d="M128.768 17.808V1.008H136.976C139.088 1.008 140.672 1.408 141.728 2.208C142.8 3.008 143.336 4.064 143.336 5.376C143.336 6.256 143.12 7.024 142.688 7.68C142.256 8.32 141.664 8.816 140.912 9.168C140.16 9.52 139.296 9.696 138.32 9.696L138.776 8.712C139.832 8.712 140.768 8.888 141.584 9.24C142.4 9.576 143.032 10.08 143.48 10.752C143.944 11.424 144.176 12.248 144.176 13.224C144.176 14.664 143.608 15.792 142.472 16.608C141.336 17.408 139.664 17.808 137.456 17.808H128.768ZM132.632 14.88H137.168C138.176 14.88 138.936 14.72 139.448 14.4C139.976 14.064 140.24 13.536 140.24 12.816C140.24 12.112 139.976 11.592 139.448 11.256C138.936 10.904 138.176 10.728 137.168 10.728H132.344V7.896H136.496C137.44 7.896 138.16 7.736 138.656 7.416C139.168 7.08 139.424 6.576 139.424 5.904C139.424 5.248 139.168 4.76 138.656 4.44C138.16 4.104 137.44 3.936 136.496 3.936H132.632V14.88Z" fill="#1B77B6"/>
<path d="M153 18C151.624 18 150.4 17.712 149.328 17.136C148.272 16.56 147.432 15.776 146.808 14.784C146.2 13.776 145.896 12.632 145.896 11.352C145.896 10.056 146.2 8.912 146.808 7.92C147.432 6.912 148.272 6.128 149.328 5.568C150.4 4.992 151.624 4.704 153 4.704C154.36 4.704 155.576 4.992 156.648 5.568C157.72 6.128 158.56 6.904 159.168 7.896C159.776 8.888 160.08 10.04 160.08 11.352C160.08 12.632 159.776 13.776 159.168 14.784C158.56 15.776 157.72 16.56 156.648 17.136C155.576 17.712 154.36 18 153 18ZM153 14.928C153.624 14.928 154.184 14.784 154.68 14.496C155.176 14.208 155.568 13.8 155.856 13.272C156.144 12.728 156.288 12.088 156.288 11.352C156.288 10.6 156.144 9.96 155.856 9.432C155.568 8.904 155.176 8.496 154.68 8.208C154.184 7.92 153.624 7.776 153 7.776C152.376 7.776 151.816 7.92 151.32 8.208C150.824 8.496 150.424 8.904 150.12 9.432C149.832 9.96 149.688 10.6 149.688 11.352C149.688 12.088 149.832 12.728 150.12 13.272C150.424 13.8 150.824 14.208 151.32 14.496C151.816 14.784 152.376 14.928 153 14.928Z" fill="#1B77B6"/>
<path d="M168.727 18C167.351 18 166.127 17.712 165.055 17.136C163.999 16.56 163.159 15.776 162.535 14.784C161.927 13.776 161.623 12.632 161.623 11.352C161.623 10.056 161.927 8.912 162.535 7.92C163.159 6.912 163.999 6.128 165.055 5.568C166.127 4.992 167.351 4.704 168.727 4.704C170.087 4.704 171.303 4.992 172.375 5.568C173.447 6.128 174.287 6.904 174.895 7.896C175.503 8.888 175.807 10.04 175.807 11.352C175.807 12.632 175.503 13.776 174.895 14.784C174.287 15.776 173.447 16.56 172.375 17.136C171.303 17.712 170.087 18 168.727 18ZM168.727 14.928C169.351 14.928 169.911 14.784 170.407 14.496C170.903 14.208 171.295 13.8 171.583 13.272C171.871 12.728 172.015 12.088 172.015 11.352C172.015 10.6 171.871 9.96 171.583 9.432C171.295 8.904 170.903 8.496 170.407 8.208C169.911 7.92 169.351 7.776 168.727 7.776C168.103 7.776 167.543 7.92 167.047 8.208C166.551 8.496 166.151 8.904 165.847 9.432C165.559 9.96 165.415 10.6 165.415 11.352C165.415 12.088 165.559 12.728 165.847 13.272C166.151 13.8 166.551 14.208 167.047 14.496C167.543 14.784 168.103 14.928 168.727 14.928Z" fill="#1B77B6"/>
<path d="M181.405 15.168L181.501 10.608L187.525 4.896H191.989L186.205 10.776L184.261 12.36L181.405 15.168ZM178.309 17.808V0H182.053V17.808H178.309ZM187.933 17.808L183.565 12.384L185.917 9.48L192.469 17.808H187.933Z" fill="#1B77B6"/>
</svg>
